<svg xmlns="http://www.w3.org/2000/svg" viewBox="0 0 314.93 207.93">
  <defs>
    <style>.cls-1{fill:#fff;}</style>
  </defs>
  <path class="cls-1" d="M146.4,184.74v-5.54c-2.77,3.77-7.32,6.47-12.55,6.47-9.7,0-16.56-7.39-16.56-19.48s6.85-19.56,16.56-19.56c5.01,0,9.55,2.46,12.55,6.55v-19.79h5.78v51.36h-5.78ZM146.4,174.57v-16.79c-2-3.23-6.55-6.01-11.09-6.01-7.55,0-12.01,6.16-12.01,14.4s4.47,14.32,12.01,14.32c4.54,0,9.09-2.7,11.09-5.93Z"/>
  <path class="cls-1" d="M161.24,139.02c-.43-2.66,1.87-4.95,4.52-4.52,1.73.28,3.05,1.79,3.19,3.54.2,2.43-1.75,4.37-4.17,4.17-1.74-.14-3.26-1.46-3.54-3.19ZM162.19,184.74v-37.19h5.78v37.19h-5.78Z"/>
  <path class="cls-1" d="M177.9,194.21l2.93-4.16c3.08,3.62,6.78,5.01,12.09,5.01,6.16,0,12.01-3,12.01-10.86v-5.62c-2.77,3.77-7.32,6.62-12.55,6.62-9.7,0-16.56-7.24-16.56-19.25s6.78-19.33,16.56-19.33c5.01,0,9.55,2.46,12.55,6.55v-5.62h5.78v36.65c0,11.78-8.7,15.63-17.79,15.63-6.24,0-10.55-1.23-15.02-5.62ZM204.93,174.03v-16.32c-2.08-3.16-6.55-5.93-11.09-5.93-7.55,0-12.01,5.93-12.01,14.17s4.47,14.09,12.01,14.09c4.54,0,9.01-2.77,11.09-6.01Z"/>
  <path class="cls-1" d="M219.77,139.02c-.43-2.65,1.86-4.95,4.52-4.52,1.73.28,3.05,1.79,3.19,3.53.2,2.43-1.75,4.38-4.18,4.18-1.74-.14-3.25-1.47-3.53-3.19ZM220.72,184.74v-37.19h5.78v37.19h-5.78Z"/>
  <path class="cls-1" d="M237.66,177.11v-24.48h-6.16v-5.08h6.16v-10.16h5.85v10.16h7.55v5.08h-7.55v23.1c0,2.77,1.23,4.77,3.7,4.77,1.69,0,3.16-.77,3.93-1.62l1.69,4.39c-1.46,1.38-3.52,2.38-6.8,2.39-4.65.01-8.37-3.9-8.37-8.55Z"/>
  <path class="cls-1" d="M280.86,184.74v-4.24c-3,3.39-7.32,5.16-12.32,5.16-6.24,0-12.94-4.24-12.94-12.32s6.62-12.24,12.94-12.24c5.08,0,9.32,1.62,12.32,5.01v-6.7c0-4.93-4-7.78-9.4-7.78-4.47,0-8.09,1.54-11.4,5.16l-2.7-4c4-4.16,8.78-6.16,14.86-6.16,7.93,0,14.4,3.54,14.4,12.55v25.57h-5.78ZM280.86,176.88v-7.08c-2.23-3-6.16-4.54-10.16-4.54-5.47,0-9.24,3.39-9.24,8.09s3.77,8.16,9.24,8.16c4,0,7.93-1.54,10.16-4.62Z"/>
  <path class="cls-1" d="M296.72,184.74v-51.36h5.78v51.36h-5.78Z"/>
  <path class="cls-1" d="M289.93,66.56c-5.4-5.81-6.8-6.25-1.33-15.15,4.69-7.62-7.93-11.76-10.16-12.78-2.26,9.77-15.54,28.48-19.07,34.62-2.84,4.51-6.64,10.12-9.91,13.82,1.09-2.24,17.59-41.15-14.6-41.15-9.93,0-26.54,9.01-35.38,27.88-1.38,2.55-8.86,17.41-15.14,24.83-1.56,1.84-3.62,3.4-5.73,4.58-2.35,1.31-4.19.09-4.32-2.58-.08-1.55-.05-3.21.41-4.68,1.64-5.29,3.56-10.49,5.24-15.76,1.92-6.05,4.24-12.05,5.41-18.26,1.7-9.02-4.06-15.02-13.23-14.52-7.95.43-14.17,4.48-19.65,9.87-1.55,1.53-2.99,3.18-4.48,4.78,1.17-4.57,2.66-8.95,4.06-13.36,2.89-9.14,5.87-18.26,8.54-27.46,1.32-4.56-.25-7.67-4.43-9.95-4.37-2.39-9.13-3.13-14.08-3.15.61,6.39-5.81,29.02-9.33,42.28-1.59,6-2.68,12.32-5.4,17.81-5.59,11.29-13.07,21.38-22.71,29.68-3.15,2.71-6.62,4.94-10.83,5.67-3.73.64-6.21-.96-6.87-4.68-.34-1.9-.62-3.98-.19-5.8,1.93-8.23,3.95-16.44,6.29-24.56,1.8-6.23,4.17-12.46,6.21-18.45.45,0,9.56.03,13.99-.04,2.77-.04,5.58-.01,8.3-.44,5.67-.88,9.49-6.71,8.88-10.91h-27.04c1.64-5.65,3.48-11.19,4.88-16.53,1.36-5.17.31-8.67-3.26-11-4.49-2.94-9.51-3.32-14.87-3.35-.63,11.68-6.43,29.69-6.43,30.88-1.18,0-2.6,0-4.68,0-7.37,0-11.64,3.56-12.25,11.38h13.83c-2.18,6.38-3.66,12.72-6.45,18.43-4.67,9.57-11.35,17.84-19.12,25.15-4.49,4.23-9.31,8.06-15.43,9.77-8.61,2.41-13.23-3.26-12.36-11.35.56-.15,1.12-.34,1.71-.45,7.97-1.49,15.44-4.31,22.34-8.56,5.64-3.48,10.56-7.72,13.19-14.04,3.59-8.63.22-16.88-8.5-20.21-8.52-3.26-16.81-1.75-24.01,3.25-15.9,11.06-23.88,26.47-22.53,45.97.58,8.42,4.72,15.22,13,18.49,7.08,2.8,14.03,1.49,20.67-1.71,8.8-4.24,15.43-11.05,21.49-18.51,1.19-1.46,2.34-2.96,3.35-4.24,0,3.33-.13,6.7.02,10.05.44,9.7,7.61,16.76,16.67,15.88,3.93-.38,7.97-1.58,11.56-3.25,7.68-3.59,13.55-9.58,19.05-15.9,1.44-1.65,2.82-3.35,4.22-5.03.15.92-.04,1.64-.21,2.35-.97,3.92-2.08,7.82-2.86,11.78-.96,4.82,1.22,8.77,5.51,10.35,3.98,1.46,8.04,1.44,12.11.51.53-3.6,1.02-7.09,1.56-10.57,2.24-14.65,7.66-28.02,16.59-39.84,1.94-2.56,4.64-4.69,7.35-6.48,1.25-.83,3.64-.97,5.01-.33,1.87.87,1.33,3.09.85,4.87-.35,1.3-.67,2.61-1.14,3.88-1.75,4.78-3.63,9.52-5.33,14.32-2.37,6.67-4.31,13.44-3.88,20.63.57,9.6,7.99,14.76,17.26,12.14,4.47-1.27,8.27-3.72,11.33-7.05,4.14-4.51,7.9-9.37,11.62-13.83.03-.04.06-.07.09-.11.13,17.32,13.17,23.16,20.68,23.16,26.79,0,50.93-44.31,54.29-51.03,0-.02.01-.04.02-.05.73-1.3,1.45-2.62,2.15-3.95,5.37,6.78,11.32,17.41,12.66,26.77.7,4.92.46,9.74-2.62,13.93-4.3,5.85-10.65,5.32-13.74-1.11-.75-1.56-1.16-3.3-1.71-4.96-1.01-3.05-2.92-3.54-5.65-2.14-3.87,1.97-5.93,7.11-4.5,11.43,2.9,8.79,12.45,13.34,22.96,10.43,20.98-5.8,33.39-27.21,10.05-52.32ZM39.29,64.39c1.61-1.54,3.73-2.81,5.85-3.5,3.43-1.12,6.16,1.56,5.04,5-.78,2.41-2.13,4.84-3.83,6.7-4.6,5.02-10.6,7.85-17.46,9.95,2.4-7.05,5.32-13.26,10.4-18.14ZM216.39,105.32c-13.65-5.41,4.03-50.77,18.45-45.03,14.42,5.74-4.79,50.44-18.45,45.03Z"/>
</svg>
